<?xml version="1.0" standalone="no"?>
<!DOCTYPE svg PUBLIC "-//W3C//DTD SVG 20010904//EN"
 "http://www.w3.org/TR/2001/REC-SVG-20010904/DTD/svg10.dtd">
<svg version="1.0" xmlns="http://www.w3.org/2000/svg"
 width="491.000000pt" height="366.000000pt" viewBox="0 0 491.000000 366.000000"
 preserveAspectRatio="xMidYMid meet">

<g transform="translate(0.000000,366.000000) scale(0.100000,-0.100000)"
fill="#000000" stroke="none">
<path d="M1703 2628 c-5 -7 -62 -164 -126 -348 -78 -222 -113 -338 -107 -344
18 -18 37 16 85 154 74 215 82 235 96 235 8 0 35 -71 72 -185 32 -102 64 -191
69 -197 13 -17 333 -18 343 -2 7 10 -210 664 -228 687 -6 8 -40 12 -102 12
-62 0 -96 -4 -102 -12z"/>
<path d="M2750 2622 c0 -5 18 -17 39 -27 22 -10 50 -29 63 -42 23 -24 23 -29
28 -321 l5 -297 180 0 180 0 5 290 c5 280 6 291 27 321 13 18 41 39 63 48 22
9 40 20 40 26 0 6 -110 10 -315 10 -173 0 -315 -4 -315 -8z"/>
<path d="M776 1674 c-15 -37 -25 -68 -22 -71 2 -2 7 5 11 16 8 27 69 30 84 4
17 -30 12 3 -10 62 -11 30 -24 55 -29 55 -4 0 -20 -30 -34 -66z m48 20 c11
-29 6 -44 -13 -44 -26 0 -31 10 -20 38 10 26 24 29 33 6z"/>
<path d="M1150 1688 c0 -32 -3 -58 -7 -58 -5 0 -23 23 -41 50 -17 28 -37 50
-42 50 -14 0 -22 -40 -17 -91 l4 -44 1 52 c1 28 6 55 12 58 5 3 26 -19 46 -50
20 -30 40 -55 44 -55 11 0 18 112 8 130 -4 9 -8 -8 -8 -42z"/>
<path d="M1638 1733 c20 -4 22 -10 23 -71 1 -57 2 -62 10 -37 5 17 9 41 8 55
-2 43 0 48 24 53 12 2 -3 4 -33 4 -30 0 -45 -2 -32 -4z"/>
<path d="M1912 1688 c-37 -96 -37 -96 -18 -70 24 31 81 31 89 0 4 -12 9 -19
12 -16 8 7 -45 138 -55 138 -5 0 -17 -24 -28 -52z m47 0 c11 -28 6 -38 -20
-38 -19 0 -24 15 -13 44 9 23 23 20 33 -6z"/>
<path d="M2817 1733 c-4 -3 -6 -34 -5 -67 1 -57 2 -58 5 -13 2 26 8 47 13 47
4 0 24 -22 44 -50 20 -27 40 -50 46 -50 6 0 9 28 8 68 l-1 67 -6 -59 c-7 -66
-7 -65 -65 22 -32 46 -30 45 -39 35z"/>
<path d="M3132 1720 c-28 -26 -29 -80 -4 -103 10 -10 32 -16 48 -16 27 2 27 2
-6 8 -26 5 -37 13 -44 34 -21 59 41 111 85 71 10 -9 19 -12 19 -6 0 14 -32 32
-57 32 -11 0 -29 -9 -41 -20z"/>
<path d="M3417 1733 c-9 -8 -9 -78 0 -86 3 -4 11 -3 17 2 6 5 25 11 41 14 27
4 26 4 -8 6 -36 1 -38 3 -35 29 2 22 9 28 38 33 l35 6 -41 2 c-22 0 -44 -2
-47 -6z"/>
<path d="M3691 1668 c1 -40 4 -61 6 -45 3 21 10 27 28 27 24 0 55 -23 55 -41
0 -5 5 -9 10 -9 6 0 4 11 -5 24 -14 21 -14 25 0 36 21 18 19 57 -4 70 -11 5
-36 10 -55 10 l-36 0 1 -72z m89 43 c13 -26 -11 -51 -51 -51 -27 0 -29 3 -29
35 0 33 2 35 35 35 24 0 37 -6 45 -19z"/>
<path d="M4174 1726 c-3 -7 -4 -40 -2 -72 3 -64 11 -70 68 -53 22 6 20 7 -13
8 -24 1 -40 7 -44 16 -7 21 0 27 44 35 l38 8 -37 1 c-37 1 -48 13 -40 43 3 11
17 18 41 21 35 4 35 4 -7 5 -28 1 -44 -3 -48 -12z"/>
<path d="M1359 1693 c11 -21 23 -51 27 -68 l8 -30 5 37 c3 21 14 47 24 58 9
11 17 26 17 33 0 6 -10 0 -21 -15 -26 -35 -36 -35 -51 -3 -6 14 -15 25 -20 25
-5 0 0 -17 11 -37z"/>
<path d="M2364 1665 l1 -70 38 -3 c20 -2 37 1 37 7 0 5 -15 11 -32 13 -32 3
-33 4 -39 63 l-6 60 1 -70z"/>
<path d="M2623 1665 c0 -38 2 -53 4 -32 2 20 2 52 0 70 -2 17 -4 1 -4 -38z"/>
<path d="M3208 1653 c6 -2 12 -16 12 -29 0 -13 5 -24 10 -24 6 0 10 14 10 30
0 25 -4 30 -22 29 -13 0 -17 -3 -10 -6z"/>
<path d="M3970 1636 c0 -14 5 -26 10 -26 6 0 10 9 10 19 0 11 -4 23 -10 26 -6
4 -10 -5 -10 -19z"/>
<path d="M3410 1622 c0 -27 71 -45 85 -22 4 6 -8 10 -29 10 -20 0 -36 5 -36
10 0 6 -4 10 -10 10 -5 0 -10 -4 -10 -8z"/>
<path d="M1275 1418 c-3 -7 -23 -64 -45 -126 -66 -185 -88 -217 -176 -253 -30
-12 -54 -25 -54 -30 0 -5 77 -9 170 -9 94 0 170 4 170 9 0 5 -18 16 -39 24
-47 19 -71 50 -71 93 0 17 20 88 46 158 25 69 42 131 39 136 -9 14 -35 12 -40
-2z"/>
<path d="M1958 1424 c-4 -3 5 -38 18 -77 74 -217 75 -271 4 -307 -21 -11 -41
-24 -45 -30 -4 -7 97 -10 304 -10 171 0 311 3 311 8 0 4 -22 21 -47 37 -66 42
-85 76 -139 241 l-46 144 -178 0 c-97 0 -179 -3 -182 -6z"/>
<path d="M2887 1424 c-4 -4 -7 -78 -7 -164 0 -181 -5 -195 -85 -226 -25 -9
-45 -21 -45 -25 0 -5 269 -9 599 -9 563 0 600 1 605 18 11 39 18 402 8 402 -6
0 -43 -65 -81 -145 -80 -164 -124 -218 -187 -228 -67 -11 -422 -8 -429 4 -4 6
-8 92 -9 192 l-1 182 -181 3 c-99 1 -183 -1 -187 -4z"/>
<path d="M866 667 c3 -10 9 -15 12 -12 3 3 0 11 -7 18 -10 9 -11 8 -5 -6z"/>
<path d="M1450 666 c0 -7 9 -16 21 -19 20 -5 20 -5 3 14 -20 23 -24 23 -24 5z"/>
<path d="M1660 676 c0 -9 30 -14 35 -6 4 6 -3 10 -14 10 -12 0 -21 -2 -21 -4z"/>
<path d="M2540 643 c0 -20 3 -33 7 -30 9 10 10 67 1 67 -5 0 -8 -16 -8 -37z"/>
<path d="M2860 669 c0 -5 5 -7 10 -4 6 3 10 8 10 11 0 2 -4 4 -10 4 -5 0 -10
-5 -10 -11z"/>
<path d="M3077 666 c-4 -10 -1 -13 8 -9 8 3 12 9 9 14 -7 12 -11 11 -17 -5z"/>
<path d="M3460 670 c0 -5 5 -10 10 -10 6 0 10 5 10 10 0 6 -4 10 -10 10 -5 0
-10 -4 -10 -10z"/>
<path d="M3775 670 c4 -6 11 -8 16 -5 14 9 11 15 -7 15 -8 0 -12 -5 -9 -10z"/>
<path d="M4370 671 c0 -5 7 -11 14 -14 10 -4 13 -1 9 9 -6 15 -23 19 -23 5z"/>
<path d="M471 654 c0 -11 3 -14 6 -6 3 7 2 16 -1 19 -3 4 -6 -2 -5 -13z"/>
<path d="M2081 654 c0 -11 3 -14 6 -6 3 7 2 16 -1 19 -3 4 -6 -2 -5 -13z"/>
<path d="M3303 644 c-6 -13 -7 -24 -3 -24 9 0 25 39 18 45 -2 2 -8 -7 -15 -21z"/>
<path d="M410 630 c0 -5 5 -10 11 -10 5 0 7 5 4 10 -3 6 -8 10 -11 10 -2 0 -4
-4 -4 -10z"/>
<path d="M2860 624 c0 -8 5 -12 10 -9 6 4 8 11 5 16 -9 14 -15 11 -15 -7z"/>
<path d="M440 626 c0 -2 7 -6 15 -10 8 -3 15 -1 15 4 0 6 -7 10 -15 10 -8 0
-15 -2 -15 -4z"/>
<path d="M1000 620 c0 -5 5 -10 10 -10 6 0 10 5 10 10 0 6 -4 10 -10 10 -5 0
-10 -4 -10 -10z"/>
<path d="M1050 620 c0 -5 5 -10 11 -10 5 0 7 5 4 10 -3 6 -8 10 -11 10 -2 0
-4 -4 -4 -10z"/>
<path d="M2050 626 c0 -2 7 -6 15 -10 8 -3 15 -1 15 4 0 6 -7 10 -15 10 -8 0
-15 -2 -15 -4z"/>
<path d="M2570 626 c0 -2 7 -6 15 -10 8 -3 15 -1 15 4 0 6 -7 10 -15 10 -8 0
-15 -2 -15 -4z"/>
<path d="M3105 620 c-3 -5 -1 -10 4 -10 6 0 11 5 11 10 0 6 -2 10 -4 10 -3 0
-8 -4 -11 -10z"/>
<path d="M3440 619 c0 -5 5 -7 10 -4 6 3 10 8 10 11 0 2 -4 4 -10 4 -5 0 -10
-5 -10 -11z"/>
<path d="M4350 619 c0 -5 5 -7 10 -4 6 3 10 8 10 11 0 2 -4 4 -10 4 -5 0 -10
-5 -10 -11z"/>
<path d="M1500 616 c0 -2 7 -9 15 -16 9 -7 15 -8 15 -2 0 5 -7 12 -15 16 -8 3
-15 4 -15 2z"/>
<path d="M2745 450 c3 -5 8 -10 11 -10 2 0 4 5 4 10 0 6 -5 10 -11 10 -5 0 -7
-4 -4 -10z"/>
<path d="M2512 405 c0 -16 2 -22 5 -12 2 9 2 23 0 30 -3 6 -5 -1 -5 -18z"/>
<path d="M1835 410 c-3 -5 -1 -10 4 -10 6 0 11 5 11 10 0 6 -2 10 -4 10 -3 0
-8 -4 -11 -10z"/>
<path d="M1870 416 c0 -2 7 -9 15 -16 13 -11 14 -10 9 4 -5 14 -24 23 -24 12z"/>
<path d="M2720 410 c0 -5 5 -10 11 -10 5 0 7 5 4 10 -3 6 -8 10 -11 10 -2 0
-4 -4 -4 -10z"/>
</g>
</svg>
